# xmcd
#
# Track frame offsets: 
#        150
#        12014
#        28803
#        42380
#        57862
#        69520
#        85842
#        98580
#        112439
#        123059
#
# Disc length: 1930 seconds
#
# Revision: 0
# Processed by: cddbd v1.5.2PL0 Copyright (c) Steve Scherf et al.
# Submitted via: ExactAudioCopy v1.0b3
#
DISCID=7d07880a
DTITLE=Called Out II - Going Home
DYEAR=1900
DGENRE=Bluegrass
TTITLE0=What Sins Are You Talking About
TTITLE1=Over The Next Hill
TTITLE2=Look What The Lord Has Done
TTITLE3=Mercy Walked In
TTITLE4=When I Get Carried Away
TTITLE5=God Walks The Dark Hills
TTITLE6=Hold On
TTITLE7=I'll Be Waiting At The River
TTITLE8=I Cast My Bread
TTITLE9=Going Home
EXTD=
EXTT0=
EXTT1=
EXTT2=
EXTT3=
EXTT4=
EXTT5=
EXTT6=
EXTT7=
EXTT8=
EXTT9=
PLAYORDER=
